<svg width="32" height="32" viewBox="0 0 32 32" fill="none" xmlns="http://www.w3.org/2000/svg">
<path fill-rule="evenodd" clip-rule="evenodd" d="M14.7692 2.18182C14.7692 3.38681 13.1161 4.36364 11.0769 4.36364C9.03771 4.36364 7.38462 3.38681 7.38462 2.18182C7.38462 0.976829 9.03771 0 11.0769 0C13.1161 0 14.7692 0.976829 14.7692 2.18182ZM16 10.1818C16 11.186 14.6225 12 12.9231 12C11.2236 12 9.84615 11.186 9.84615 10.1818C9.84615 9.17766 11.2236 8.36364 12.9231 8.36364C14.6225 8.36364 16 9.17766 16 10.1818ZM19.6923 7.63636C21.3918 7.63636 22.7692 6.82234 22.7692 5.81818C22.7692 4.81402 21.3918 4 19.6923 4C17.9929 4 16.6154 4.81402 16.6154 5.81818C16.6154 6.82234 17.9929 7.63636 19.6923 7.63636ZM20.3077 21.8182C20.3077 22.8224 18.9302 23.6364 17.2308 23.6364C15.5313 23.6364 14.1538 22.8224 14.1538 21.8182C14.1538 20.814 15.5313 20 17.2308 20C18.9302 20 20.3077 20.814 20.3077 21.8182ZM2.46154 4.36364C1.10208 4.36364 0 5.01487 0 5.81818C0 6.6215 1.10208 7.27273 2.46154 7.27273V23.2727C2.46154 25.1303 3.36982 27.2691 5.52453 28.9818C7.74484 30.7468 11.23 32 16 32C20.77 32 24.2553 30.7468 26.4756 28.9818C28.6302 27.2691 29.5385 25.1303 29.5385 23.2727V7.27273C30.898 7.27273 32 6.6215 32 5.81818C32 5.01487 30.898 4.36364 29.5385 4.36364H27.0769C25.7174 4.36364 24.6154 5.01542 24.6154 5.81873V15.2656C23.5188 15.6797 22.2417 16 20.9231 16C19.728 16 18.512 15.7369 16.7249 15.334C15.2116 14.9926 13.2281 14.5455 11.0769 14.5455C9.70917 14.5455 8.45337 14.7207 7.38462 14.9536V5.81818C7.38462 5.02593 6.2638 4.36364 4.92308 4.36364H2.46154ZM20.9231 18.9091C22.291 18.9091 23.5466 18.7338 24.6154 18.5009V23.2727C24.6154 24.6284 23.934 26.126 22.5246 27.2463C21.1808 28.3145 19.1274 29.0909 16 29.0909C12.8726 29.0909 10.8192 28.3145 9.47547 27.2463C8.06609 26.126 7.38462 24.6284 7.38462 23.2727V18.1889C8.48131 17.7748 9.75833 17.4545 11.0769 17.4545C12.272 17.4545 13.488 17.7177 15.2751 18.1206C16.7884 18.462 18.7719 18.9091 20.9231 18.9091Z" fill="#254E58"/>
</svg>
