<svg width="33" height="33" viewBox="0 0 33 33" fill="none" xmlns="http://www.w3.org/2000/svg">
<path fill-rule="evenodd" clip-rule="evenodd" d="M19.1727 1.42991L31.2131 11.2803L31.2751 11.3485C31.4626 11.5546 31.7497 11.883 31.9929 12.2747C32.2247 12.6486 32.5 13.2108 32.5 13.8695V30.247C32.5 31.6266 31.3835 32.75 30 32.75H22.2001C21.1646 32.75 20.3251 31.9105 20.3251 30.875V24.9924C20.3251 22.7435 18.5072 20.9256 16.271 20.9256C14.0349 20.9256 12.2169 22.7435 12.2169 24.9924V30.875C12.2169 31.9105 11.3775 32.75 10.3419 32.75H2.5C1.11647 32.75 0 31.6266 0 30.247V13.6781C0 12.8626 0.453737 12.205 0.712325 11.8785C0.863112 11.6881 1.01091 11.533 1.12039 11.4255C1.17587 11.371 1.22346 11.3268 1.25925 11.2946C1.27719 11.2784 1.2923 11.265 1.30412 11.2548L1.31939 11.2416L1.32509 11.2368L1.32847 11.2339C1.32847 11.2339 1.32945 11.2331 2.13437 12.1894L1.32945 11.2331L1.3419 11.2226L13.286 1.43271C14.9315 -0.143151 17.5257 -0.14439 19.1727 1.42991ZM2.94057 13.1449L2.9335 13.1511C2.92091 13.1625 2.89941 13.1824 2.87199 13.2093C2.81564 13.2646 2.74235 13.342 2.67205 13.4307C2.59957 13.5222 2.5475 13.6042 2.51717 13.668C2.50826 13.6867 2.50297 13.7003 2.5 13.7087V30.247L2.50007 30.249L2.50087 30.25H9.71692V24.9924C9.71692 21.3685 12.6485 18.4256 16.271 18.4256C19.8936 18.4256 22.8251 21.3685 22.8251 24.9924V30.25H29.9991L30 30.247V13.8695C30 13.8736 30.001 13.874 30 13.8695C29.9957 13.8515 29.9735 13.7619 29.8685 13.5927C29.7635 13.4236 29.6256 13.2546 29.485 13.0965L17.505 3.29556L17.4642 3.25549C16.7785 2.58105 15.6814 2.58156 14.9962 3.25668L14.9555 3.2968L2.94057 13.1449Z" fill="#254E58"/>
</svg>
