<svg width="30" height="30" viewBox="0 0 30 30" fill="none" xmlns="http://www.w3.org/2000/svg">
<path fill-rule="evenodd" clip-rule="evenodd" d="M7.5 9.375C6.465 9.375 5.625 8.535 5.625 7.5C5.625 6.465 6.465 5.625 7.5 5.625C8.535 5.625 9.375 6.465 9.375 7.5C9.375 8.535 8.535 9.375 7.5 9.375ZM7.5 3.75C5.42906 3.75 3.75 5.42906 3.75 7.5C3.75 9.57094 5.42906 11.25 7.5 11.25C9.57094 11.25 11.25 9.57094 11.25 7.5C11.25 5.42906 9.57094 3.75 7.5 3.75ZM28.125 16.0575L22.5 10.3125L13.1803 19.7916L9.375 15.9375L1.875 22.8159V3.75C1.875 2.715 2.715 1.875 3.75 1.875H26.25C27.285 1.875 28.125 2.715 28.125 3.75V16.0575ZM28.125 26.25C28.125 27.285 27.285 28.125 26.25 28.125H21.405L14.4975 21.1266L22.5 13.1241L28.125 18.7491V26.25ZM3.75 28.125C2.715 28.125 1.875 27.285 1.875 26.25V25.3697L9.32344 18.6984L18.7509 28.125H3.75ZM26.25 0H3.75C1.67906 0 0 1.67906 0 3.75V26.25C0 28.3209 1.67906 30 3.75 30H26.25C28.3209 30 30 28.3209 30 26.25V3.75C30 1.67906 28.3209 0 26.25 0Z" fill="white"/>
</svg>
