<svg width="35" height="35" viewBox="0 0 35 35" fill="none" xmlns="http://www.w3.org/2000/svg">
<path fill-rule="evenodd" clip-rule="evenodd" d="M0 17.5C0 7.83501 7.83501 0 17.5 0C27.1649 0 35 7.83501 35 17.5C35 27.1649 27.1649 35 17.5 35C7.83501 35 0 27.1649 0 17.5ZM23.3333 11.6667H25.6667V23.3333H23.3333V11.6667ZM11.0788 11.8204C10.7177 11.614 10.2741 11.6155 9.91443 11.8243C9.55472 12.033 9.33333 12.4174 9.33333 12.8333V22.1667C9.33333 22.5826 9.55472 22.967 9.91443 23.1757C10.2741 23.3844 10.7177 23.3861 11.0788 23.1796L19.2455 18.5129C19.609 18.3052 19.8333 17.9187 19.8333 17.5C19.8333 17.0813 19.609 16.6948 19.2455 16.4871L11.0788 11.8204Z" fill="white"/>
</svg>
