<svg width="36" height="36" viewBox="0 0 36 36" fill="none" xmlns="http://www.w3.org/2000/svg">
<path d="M23.342 11.4242C22.6793 10.7615 22.3479 10.4301 22.2237 10.048C22.1144 9.71189 22.1144 9.34984 22.2237 9.01372C22.3479 8.6316 22.6793 8.30024 23.342 7.63749L28.0921 2.8874C26.8316 2.31733 25.4322 2 23.9588 2C18.4133 2 13.9177 6.49558 13.9177 12.0412C13.9177 12.8629 14.0164 13.6616 14.2027 14.4261C14.402 15.2447 14.5017 15.654 14.4842 15.9125C14.4656 16.1833 14.4253 16.3274 14.3004 16.5682C14.1811 16.7983 13.9527 17.0268 13.4957 17.4838L3.0398 27.9397C1.6534 29.326 1.6534 31.5739 3.0398 32.9602C4.42618 34.3466 6.67398 34.3466 8.06038 32.9602L18.5162 22.5044C18.9732 22.0473 19.2017 21.8189 19.4318 21.6997C19.6728 21.5749 19.8167 21.5346 20.0875 21.516C20.346 21.4983 20.7554 21.598 21.5739 21.7973C22.3384 21.9836 23.1371 22.0823 23.9588 22.0823C29.5044 22.0823 34 17.5867 34 12.0412C34 10.5678 33.6827 9.1685 33.1127 7.90798L28.3626 12.6581C27.6998 13.3208 27.3685 13.6522 26.9863 13.7763C26.6502 13.8856 26.2882 13.8856 25.952 13.7763C25.5699 13.6522 25.2386 13.3208 24.5759 12.6581L23.342 11.4242Z" stroke="#254E58" stroke-width="3" stroke-linecap="round" stroke-linejoin="round"/>
</svg>
